# xmcd CD database file generated by Grip 3.0.5
# 
# Track frame offsets:
#       150
#       9921
#       22148
#       30110
#       42221
#       55496
#       62136
#       70913
#       79682
#       89900
#       100189
#       112194
#       121496
#       129609
#       151298
#       162045
#       171639
#       185750
# 
# Disc length: 2689 seconds
# 
# Revision: 1
# Processed by: cddbd v1.5.1PL0 Copyright (c) Steve Scherf et al.
# Submitted via: Grip 3.0.5
# 
DISCID=f90a7f12
DTITLE=Willie Nelson - You're always on my mind
DYEAR=2002
DGENRE=Country
TTITLE0=I didn't sleep a wink
TTITLE1=Shelter of my arms
TTITLE2=Things to remember
TTITLE3=I can't find the time
TTITLE4=Everything but you
TTITLE5=Both ends of the candle
TTITLE6=Why are you picking on me
TTITLE7=The ghost
TTITLE8=Broken promises
TTITLE9=Blame it on the times
TTITLE10=Happiness lives next door
TTITLE11=Building heartaches
TTITLE12=Half a man
TTITLE13=The City of New Orleans (live)
TTITLE14=Touch me (live)
TTITLE15=Let's pretend
TTITLE16=Rainy day blues
TTITLE17=You're always on my mind (live)
EXTD=
EXTT0=
EXTT1=
EXTT2=
EXTT3=
EXTT4=
EXTT5=
EXTT6=
EXTT7=
EXTT8=
EXTT9=
EXTT10=
EXTT11=
EXTT12=
EXTT13=
EXTT14=
EXTT15=
EXTT16=
EXTT17=
PLAYORDER=
